<?xml version="1.0" encoding="utf-8"?>
<!-- Generator: Adobe Illustrator 16.0.0, SVG Export Plug-In . SVG Version: 6.00 Build 0)  -->
<!DOCTYPE svg PUBLIC "-//W3C//DTD SVG 1.1//EN" "http://www.w3.org/Graphics/SVG/1.1/DTD/svg11.dtd">
<svg version="1.1" id="Layer_1" xmlns="http://www.w3.org/2000/svg" xmlns:xlink="http://www.w3.org/1999/xlink" x="0px" y="0px"
	 width="595.281px" height="841.891px" viewBox="0 0 595.281 841.891" enable-background="new 0 0 595.281 841.891"
	 xml:space="preserve">
<path fill="#FCA574" d="M264.569,536.694c0,36.896,10.955,71.206,29.868,99.834l-5.684,5.891c-13.436,13.332-35.035,13.332-47.437,0
	L41.039,435.93c-57.802-59.941-54.712-159.052,10.325-214.776c55.704-48.521,141.379-39.23,193.053,13.425l20.566,21.672
	l19.636-21.672c51.674-52.655,136.315-61.946,194.086-13.425c44.336,38.673,59.424,98.098,45.266,150.908
	c-23.459-11.059-49.813-17.26-77.51-17.26C346.007,354.802,264.569,436.241,264.569,536.694z M595.281,536.694
	c0,82.161-66.66,148.82-148.82,148.82c-82.162,0-148.82-66.659-148.82-148.82s66.658-148.82,148.82-148.82
	C528.621,387.874,595.281,454.533,595.281,536.694z M512.603,519.228H380.318c-9.094,0-16.535,8.371-16.535,16.536
	c0,10.024,7.441,16.535,16.535,16.535h132.285c9.094,0,16.535-6.511,16.535-16.535C529.138,527.599,521.697,519.228,512.603,519.228
	z"/>
</svg>
